{
date = "2012-04-12 20:10:39 +0000";
designer = "Stanford M. Rosenthal";
designerURL = "http:rosethal.co";
familyName = "Chopd";
featurePrefixes = (
{
automatic = 1;
code = "languagesystem DFLT dflt;\012languagesystem latn dflt;\012";
name = Languagesystems;
}
);
fontMaster = (
{
ascender = 800;
capHeight = 700;
descender = "-200";
id = "CB061CE1-0D1C-4F8D-B790-4707B6629435";
xHeight = 500;
}
);
glyphs = (
{
glyphname = A;
layers = (
{
anchors = (
{
name = top;
position = "{245, 700}";
},
{
name = ogonek;
position = "{413, 10}";
}
);
layerId = "CB061CE1-0D1C-4F8D-B790-4707B6629435";
name = Regular;
paths = (
{
closed = 1;
nodes = (
"458 700 OFFCURVE",
"455 563 OFFCURVE",
"455 563 CURVE",
"455 0 LINE",
"315 0 LINE",
"315 211 LINE",
"175 211 LINE",
"175 143 LINE",
"35 3 LINE",
"35 3 OFFCURVE",
"35 424 OFFCURVE",
"35 563 CURVE SMOOTH",
"35 700 OFFCURVE",
"178 700 OFFCURVE",
"178 700 CURVE SMOOTH",
"178 700 OFFCURVE",
"178 700 OFFCURVE",
"318 700 CURVE SMOOTH"
);
},
{
closed = 1;
nodes = (
"315 556 OFFCURVE",
"175 556 OFFCURVE",
"175 416 CURVE SMOOTH",
"175 309 LINE",
"315 309 LINE",
"315 556 LINE"
);
}
);
width = 490;
}
);
leftKerningGroup = 50;
rightKerningGroup = 50;
unicode = 0041;
},
{
glyphname = B;
layers = (
{
layerId = "CB061CE1-0D1C-4F8D-B790-4707B6629435";
name = Regular;
paths = (
{
closed = 1;
nodes = (
"456 350 OFFCURVE",
"455 211 OFFCURVE",
"455 211 CURVE SMOOTH",
"455 211 OFFCURVE",
"455 280 OFFCURVE",
"455 141 CURVE SMOOTH",
"455 3 OFFCURVE",
"315 -1 OFFCURVE",
"315 -1 CURVE SMOOTH",
"35 -1 LINE",
"35 560 LINE",
"176 700 LINE",
"316 700 LINE",
"316 700 OFFCURVE",
"456 700 OFFCURVE",
"456 560 CURVE SMOOTH",
"456 420 OFFCURVE",
"456 490 OFFCURVE",
"456 490 CURVE SMOOTH",
"456 490 OFFCURVE",
"470 350 OFFCURVE",
"316 350 CURVE"
);
},
{
closed = 1;
nodes = (
"315 433 LINE",
"315 574 LINE",
"178 574 OFFCURVE",
"176 433 OFFCURVE",
"176 433 CURVE"
);
},
{
closed = 1;
nodes = (
"175 251 LINE",
"175 111 LINE",
"313 111 OFFCURVE",
"315 251 OFFCURVE",
"315 251 CURVE SMOOTH"
);
}
);
width = 491;
}
);
leftKerningGroup = 50;
rightKerningGroup = 50;
unicode = 0042;
},
{
glyphname = C;
layers = (
{
anchors = (
{
name = top;
position = "{243, 700}";
},
{
name = bottom;
position = "{243, 0}";
}
);
layerId = "CB061CE1-0D1C-4F8D-B790-4707B6629435";
name = Regular;
paths = (
{
closed = 1;
nodes = (
"317 0 LINE",
"175 0 LINE SMOOTH",
"34 0 OFFCURVE",
"35 139 OFFCURVE",
"35 139 CURVE SMOOTH",
"35 139 OFFCURVE",
"35 421 OFFCURVE",
"35 560 CURVE SMOOTH",
"35 700 OFFCURVE",
"175 700 OFFCURVE",
"175 700 CURVE",
"454 700 LINE",
"454 476 LINE",
"314 476 LINE",
"314 561 LINE",
"314 561 OFFCURVE",
"175 561 OFFCURVE",
"175 421 CURVE SMOOTH",
"175 281 OFFCURVE",
"177 140 OFFCURVE",
"177 140 CURVE",
"317 140 OFFCURVE",
"315 279 OFFCURVE",
"315 279 CURVE",
"454 279 LINE",
"454 141 LINE"
);
}
);
width = 489;
}
);
leftKerningGroup = 50;
rightKerningGroup = 50;
unicode = 0043;
},
{
glyphname = D;
layers = (
{
anchors = (
{
name = top;
position = "{246, 700}";
},
{
name = center;
position = "{246, 350}";
}
);
layerId = "CB061CE1-0D1C-4F8D-B790-4707B6629435";
name = Regular;
paths = (
{
closed = 1;
nodes = (
"35 3 LINE",
"317 3 LINE",
"452 157 LINE",
"452 562 LINE",
"452 562 OFFCURVE",
"455 700 OFFCURVE",
"316 700 CURVE SMOOTH",
"35 700 LINE"
);
},
{
closed = 1;
nodes = (
"162 560 OFFCURVE",
"300 560 OFFCURVE",
"300 421 CURVE SMOOTH",
"300 281 LINE SMOOTH",
"300 142 OFFCURVE",
"162 142 OFFCURVE",
"162 142 CURVE",
"162 560 LINE"
);
}
);
width = 487;
}
);
leftKerningGroup = 50;
rightKerningGroup = 50;
unicode = 0044;
},
{
glyphname = E;
layers = (
{
anchors = (
{
name = top;
position = "{246, 700}";
},
{
name = bottom;
position = "{246, 0}";
},
{
name = ogonek;
position = "{414, 10}";
}
);
layerId = "CB061CE1-0D1C-4F8D-B790-4707B6629435";
name = Regular;
paths = (
{
closed = 1;
nodes = (
"357 420 LINE",
"174 419 LINE SMOOTH",
"174 419 OFFCURVE",
"176 559 OFFCURVE",
"315 559 CURVE SMOOTH",
"455 559 OFFCURVE",
"455 559 OFFCURVE",
"455 559 CURVE",
"455 700 LINE",
"175 700 LINE",
"35 559 LINE",
"35 0 LINE",
"455 0 LINE",
"455 141 LINE",
"175 141 LINE SMOOTH",
"175 141 OFFCURVE",
"172 280 OFFCURVE",
"313 280 CURVE SMOOTH",
"357 280 LINE"
);
}
);
width = 490;
}
);
leftKerningGroup = 50;
rightKerningGroup = 50;
unicode = 0045;
},
{
glyphname = F;
layers = (
{
layerId = "CB061CE1-0D1C-4F8D-B790-4707B6629435";
name = Regular;
paths = (
{
closed = 1;
nodes = (
"357 280 LINE",
"357 421 LINE",
"175 421 LINE SMOOTH",
"175 421 OFFCURVE",
"176 560 OFFCURVE",
"315 560 CURVE SMOOTH",
"455 560 OFFCURVE",
"455 560 OFFCURVE",
"455 560 CURVE",
"455 700 LINE",
"175 700 LINE",
"35 561 LINE",
"35 0 LINE",
"175 0 LINE",
"175 280 LINE"
);
}
);
width = 490;
}
);
leftKerningGroup = 50;
rightKerningGroup = 50;
unicode = 0046;
},
{
glyphname = G;
layers = (
{
anchors = (
{
name = top;
position = "{261, 700}";
},
{
name = bottom;
position = "{261, 0}";
}
);
layerId = "CB061CE1-0D1C-4F8D-B790-4707B6629435";
name = Regular;
paths = (
{
closed = 1;
nodes = (
"174 698 LINE SMOOTH",
"174 698 OFFCURVE",
"35 701 OFFCURVE",
"35 560 CURVE SMOOTH",
"35 420 OFFCURVE",
"35 140 OFFCURVE",
"35 140 CURVE SMOOTH",
"35 140 OFFCURVE",
"37 2 OFFCURVE",
"176 2 CURVE SMOOTH",
"316 2 OFFCURVE",
"357 2 OFFCURVE",
"357 2 CURVE SMOOTH",
"357 2 OFFCURVE",
"494 3 OFFCURVE",
"494 139 CURVE SMOOTH",
"494 276 OFFCURVE",
"494 420 OFFCURVE",
"494 420 CURVE SMOOTH",
"356 420 LINE",
"216 280 LINE",
"356 280 LINE",
"356 280 OFFCURVE",
"356 141 OFFCURVE",
"216 141 CURVE SMOOTH",
"77 141 OFFCURVE",
"177 141 OFFCURVE",
"177 141 CURVE",
"177 420 LINE",
"177 420 OFFCURVE",
"177 559 OFFCURVE",
"317 559 CURVE SMOOTH",
"456 559 OFFCURVE",
"356 559 OFFCURVE",
"356 559 CURVE",
"356 488 LINE",
"494 488 LINE",
"494 562 LINE",
"494 562 OFFCURVE",
"495 698 OFFCURVE",
"356 698 CURVE SMOOTH"
);
}
);
width = 529;
}
);
leftKerningGroup = 50;
rightKerningGroup = 50;
unicode = 0047;
},
{
glyphname = H;
layers = (
{
anchors = (
{
name = top;
position = "{333, 700}";
},
{
name = center;
position = "{333, 350}";
}
);
layerId = "CB061CE1-0D1C-4F8D-B790-4707B6629435";
name = Regular;
paths = (
{
closed = 1;
nodes = (
"35 700 LINE",
"35 141 LINE",
"175 1 LINE",
"175 280 LINE",
"315 280 LINE",
"315 0 LINE",
"455 0 LINE",
"455 563 LINE",
"316 700 LINE",
"316 504 LINE",
"316 504 OFFCURVE",
"316 363 OFFCURVE",
"176 363 CURVE",
"175 700 LINE"
);
}
);
width = 490;
}
);
leftKerningGroup = 50;
rightKerningGroup = 50;
unicode = 0048;
},
{
glyphname = I;
layers = (
{
anchors = (
{
name = top;
position = "{335, 700}";
},
{
name = ogonek;
position = "{575, 10}";
}
);
layerId = "CB061CE1-0D1C-4F8D-B790-4707B6629435";
name = Regular;
paths = (
{
closed = 1;
nodes = (
"455 700 LINE",
"176 700 LINE",
"35 560 LINE",
"175 560 LINE",
"175 141 LINE",
"35 141 LINE",
"35 3 LINE",
"455 3 LINE",
"455 141 LINE",
"315 141 LINE",
"315 560 LINE",
"455 560 LINE"
);
}
);
width = 490;
}
);
leftKerningGroup = 50;
rightKerningGroup = 50;
unicode = 0049;
},
{
glyphname = J;
layers = (
{
anchors = (
{
name = top;
position = "{245, 700}";
}
);
layerId = "CB061CE1-0D1C-4F8D-B790-4707B6629435";
name = Regular;
paths = (
{
closed = 1;
nodes = (
"35 140 LINE",
"175 0 LINE",
"314 0 LINE",
"314 0 OFFCURVE",
"455 0 OFFCURVE",
"455 140 CURVE SMOOTH",
"455 700 LINE",
"315 700 LINE",
"315 280 LINE",
"315 280 OFFCURVE",
"315 140 OFFCURVE",
"175 140 CURVE"
);
}
);
width = 490;
}
);
leftKerningGroup = 50;
rightKerningGroup = 50;
unicode = 004A;
},
{
glyphname = K;
layers = (
{
anchors = (
{
name = top;
position = "{335, 700}";
},
{
name = bottom;
position = "{335, 0}";
}
);
layerId = "CB061CE1-0D1C-4F8D-B790-4707B6629435";
name = Regular;
paths = (
{
closed = 1;
nodes = (
"455 644 OFFCURVE",
"455 700 OFFCURVE",
"455 700 CURVE SMOOTH",
"314 700 LINE",
"314 560 LINE",
"314 560 OFFCURVE",
"314 420 OFFCURVE",
"174 420 CURVE",
"174 700 LINE",
"35 700 LINE",
"35 0 LINE",
"174 140 LINE",
"174 280 LINE",
"174 280 OFFCURVE",
"314 280 OFFCURVE",
"314 140 CURVE SMOOTH",
"314 0 OFFCURVE",
"314 0 OFFCURVE",
"314 0 CURVE",
"455 0 LINE",
"455 223 LINE",
"455 223 OFFCURVE",
"454 343 OFFCURVE",
"337 353 CURVE",
"378 357 OFFCURVE",
"455 379 OFFCURVE",
"455 493 CURVE SMOOTH"
);
}
);
width = 490;
}
);
leftKerningGroup = 50;
rightKerningGroup = 50;
unicode = 004B;
},
{
glyphname = L;
layers = (
{
anchors = (
{
name = top;
position = "{454, 700}";
},
{
name = bottom;
position = "{454, -280}";
}
);
layerId = "CB061CE1-0D1C-4F8D-B790-4707B6629435";
name = Regular;
paths = (
{
closed = 1;
nodes = (
"175 700 LINE",
"105 630 LINE",
"35 560 LINE",
"35 140 LINE",
"35 0 LINE",
"175 0 LINE",
"455 0 LINE",
"455 137 LINE",
"315 137 LINE SMOOTH",
"315 137 OFFCURVE",
"174 137 OFFCURVE",
"174 279 CURVE"
);
}
);
width = 490;
}
);
leftKerningGroup = 50;
rightKerningGroup = 50;
unicode = 004C;
},
{
glyphname = M;
layers = (
{
layerId = "CB061CE1-0D1C-4F8D-B790-4707B6629435";
name = Regular;
paths = (
{
closed = 1;
nodes = (
"176 700 LINE",
"35 559 LINE",
"35 0 LINE",
"179 0 LINE",
"179 420 LINE",
"179 420 OFFCURVE",
"179 559 OFFCURVE",
"316 559 CURVE",
"316 0 LINE",
"455 0 LINE",
"455 420 LINE",
"455 420 OFFCURVE",
"455 560 OFFCURVE",
"595 560 CURVE",
"595 0 LINE",
"735 0 LINE",
"735 560 LINE",
"735 560 OFFCURVE",
"735 700 OFFCURVE",
"595 700 CURVE SMOOTH"
);
}
);
width = 770;
}
);
leftKerningGroup = 50;
rightKerningGroup = 50;
unicode = 004D;
},
{
glyphname = N;
layers = (
{
anchors = (
{
name = top;
position = "{333, 700}";
},
{
name = bottom;
position = "{333, 0}";
}
);
layerId = "CB061CE1-0D1C-4F8D-B790-4707B6629435";
name = Regular;
paths = (
{
closed = 1;
nodes = (
"35 0 LINE",
"174 0 LINE",
"174 420 LINE",
"174 420 OFFCURVE",
"174 561 OFFCURVE",
"314 561 CURVE",
"314 0 LINE",
"455 0 LINE",
"455 700 LINE",
"175 700 LINE",
"35 560 LINE"
);
}
);
width = 490;
}
);
leftKerningGroup = 50;
rightKerningGroup = 50;
unicode = 004E;
},
{
glyphname = O;
layers = (
{
anchors = (
{
name = top;
position = "{335, 700}";
}
);
layerId = "CB061CE1-0D1C-4F8D-B790-4707B6629435";
name = Regular;
paths = (
{
closed = 1;
nodes = (
"455 700 OFFCURVE",
"455 561 OFFCURVE",
"455 561 CURVE SMOOTH",
"455 561 OFFCURVE",
"455 280 OFFCURVE",
"455 140 CURVE SMOOTH",
"455 -1 OFFCURVE",
"315 0 OFFCURVE",
"315 0 CURVE SMOOTH",
"315 0 OFFCURVE",
"315 0 OFFCURVE",
"175 0 CURVE SMOOTH",
"35 0 OFFCURVE",
"35 141 OFFCURVE",
"35 141 CURVE SMOOTH",
"35 141 OFFCURVE",
"35 420 OFFCURVE",
"35 561 CURVE SMOOTH",
"35 703 OFFCURVE",
"174 700 OFFCURVE",
"174 700 CURVE SMOOTH",
"174 700 OFFCURVE",
"175 700 OFFCURVE",
"315 700 CURVE SMOOTH"
);
},
{
closed = 1;
nodes = (
"175 140 OFFCURVE",
"314 140 OFFCURVE",
"314 280 CURVE SMOOTH",
"314 420 OFFCURVE",
"314 560 OFFCURVE",
"314 560 CURVE SMOOTH",
"314 560 OFFCURVE",
"175 560 OFFCURVE",
"175 420 CURVE SMOOTH",
"175 280 OFFCURVE",
"175 140 OFFCURVE",
"175 140 CURVE SMOOTH"
);
}
);
width = 490;
}
);
leftKerningGroup = 50;
rightKerningGroup = 50;
unicode = 004F;
},
{
glyphname = P;
layers = (
{
layerId = "CB061CE1-0D1C-4F8D-B790-4707B6629435";
name = Regular;
paths = (
{
closed = 1;
nodes = (
"315 700 LINE",
"456 700 OFFCURVE",
"455 560 OFFCURVE",
"455 560 CURVE SMOOTH",
"455 560 OFFCURVE",
"455 573 OFFCURVE",
"455 434 CURVE SMOOTH",
"455 294 OFFCURVE",
"315 293 OFFCURVE",
"315 293 CURVE SMOOTH",
"174 293 LINE",
"174 -1 LINE",
"35 -1 LINE",
"35 560 LINE",
"175 700 LINE"
);
},
{
closed = 1;
nodes = (
"308 410 LINE",
"308 580 LINE",
"308 580 OFFCURVE",
"168 581 OFFCURVE",
"168 440 CURVE SMOOTH",
"168 410 LINE"
);
}
);
width = 490;
}
);
leftKerningGroup = 50;
rightKerningGroup = 50;
unicode = 0050;
},
{
glyphname = Q;
layers = (
{
layerId = "CB061CE1-0D1C-4F8D-B790-4707B6629435";
name = Regular;
paths = (
{
closed = 1;
nodes = (
"175 -28 LINE",
"434 -28 LINE",
"434 -28 OFFCURVE",
"539 -28 OFFCURVE",
"539 -133 CURVE",
"273 -133 LINE"
);
},
{
closed = 1;
nodes = (
"455 700 OFFCURVE",
"454 561 OFFCURVE",
"454 561 CURVE SMOOTH",
"454 561 OFFCURVE",
"454 280 OFFCURVE",
"454 139 CURVE SMOOTH",
"454 -1 OFFCURVE",
"315 0 OFFCURVE",
"315 0 CURVE SMOOTH",
"315 0 OFFCURVE",
"315 0 OFFCURVE",
"175 0 CURVE SMOOTH",
"35 0 OFFCURVE",
"35 142 OFFCURVE",
"35 142 CURVE SMOOTH",
"35 142 OFFCURVE",
"35 420 OFFCURVE",
"35 561 CURVE SMOOTH",
"35 702 OFFCURVE",
"174 700 OFFCURVE",
"174 700 CURVE SMOOTH",
"174 700 OFFCURVE",
"175 700 OFFCURVE",
"315 700 CURVE SMOOTH"
);
},
{
closed = 1;
nodes = (
"174 140 OFFCURVE",
"314 140 OFFCURVE",
"314 280 CURVE SMOOTH",
"314 420 OFFCURVE",
"314 560 OFFCURVE",
"314 560 CURVE SMOOTH",
"314 560 OFFCURVE",
"175 560 OFFCURVE",
"175 420 CURVE SMOOTH",
"175 280 OFFCURVE",
"174 140 OFFCURVE",
"174 140 CURVE SMOOTH"
);
}
);
width = 609;
}
);
leftKerningGroup = 50;
rightKerningGroup = 50;
unicode = 0051;
},
{
glyphname = R;
layers = (
{
anchors = (
{
name = top;
position = "{335, 700}";
},
{
name = bottom;
position = "{335, 0}";
}
);
layerId = "CB061CE1-0D1C-4F8D-B790-4707B6629435";
name = Regular;
paths = (
{
closed = 1;
nodes = (
"454 398 OFFCURVE",
"456 491 OFFCURVE",
"456 491 CURVE",
"456 505 OFFCURVE",
"456 526 OFFCURVE",
"456 561 CURVE SMOOTH",
"456 701 OFFCURVE",
"316 700 OFFCURVE",
"316 700 CURVE SMOOTH",
"176 700 LINE",
"35 560 LINE",
"35 419 LINE",
"35 350 LINE",
"35 0 LINE",
"176 0 LINE",
"176 281 LINE",
"318 281 OFFCURVE",
"318 140 OFFCURVE",
"318 140 CURVE",
"318 0 LINE",
"456 0 LINE",
"456 0 OFFCURVE",
"456 98 OFFCURVE",
"456 238 CURVE SMOOTH",
"456 313 OFFCURVE",
"416 347 OFFCURVE",
"379 363 CURVE"
);
},
{
closed = 1;
nodes = (
"315 434 LINE",
"176 434 LINE SMOOTH",
"176 434 OFFCURVE",
"175 575 OFFCURVE",
"315 575 CURVE"
);
}
);
width = 491;
}
);
leftKerningGroup = 50;
rightKerningGroup = 50;
unicode = 0052;
},
{
glyphname = S;
layers = (
{
anchors = (
{
name = top;
position = "{335, 700}";
},
{
name = bottom;
position = "{335, 0}";
}
);
layerId = "CB061CE1-0D1C-4F8D-B790-4707B6629435";
name = Regular;
paths = (
{
closed = 1;
nodes = (
"315 280 LINE",
"315 280 OFFCURVE",
"315 140 OFFCURVE",
"175 140 CURVE SMOOTH",
"35 140 OFFCURVE",
"35 140 OFFCURVE",
"35 140 CURVE",
"35 0 LINE",
"315 0 LINE",
"315 0 OFFCURVE",
"455 0 OFFCURVE",
"455 140 CURVE SMOOTH",
"455 280 OFFCURVE",
"455 350 OFFCURVE",
"455 350 CURVE SMOOTH",
"455 350 OFFCURVE",
"455 420 OFFCURVE",
"315 420 CURVE SMOOTH",
"175 420 OFFCURVE",
"175 420 OFFCURVE",
"175 420 CURVE",
"175 434 LINE",
"175 434 OFFCURVE",
"175 560 OFFCURVE",
"301 560 CURVE SMOOTH",
"427 560 OFFCURVE",
"455 560 OFFCURVE",
"455 560 CURVE",
"455 700 LINE",
"175 700 LINE",
"35 559 LINE",
"35 420 OFFCURVE",
"35 420 OFFCURVE",
"35 420 CURVE SMOOTH",
"35 420 OFFCURVE",
"35 280 OFFCURVE",
"175 280 CURVE"
);
}
);
width = 490;
}
);
leftKerningGroup = 50;
rightKerningGroup = 50;
unicode = 0053;
},
{
glyphname = T;
layers = (
{
anchors = (
{
name = top;
position = "{335, 700}";
},
{
name = bottom;
position = "{335, 0}";
},
{
name = center;
position = "{335, 350}";
}
);
layerId = "CB061CE1-0D1C-4F8D-B790-4707B6629435";
name = Regular;
paths = (
{
closed = 1;
nodes = (
"455 560 LINE",
"455 700 LINE",
"35 700 LINE",
"35 560 LINE",
"175 560 LINE",
"175 0 LINE",
"315 140 LINE",
"315 560 LINE"
);
}
);
width = 490;
}
);
leftKerningGroup = 50;
rightKerningGroup = 50;
unicode = 0054;
},
{
glyphname = U;
layers = (
{
anchors = (
{
name = top;
position = "{335, 700}";
},
{
name = ogonek;
position = "{575, 10}";
}
);
layerId = "CB061CE1-0D1C-4F8D-B790-4707B6629435";
name = Regular;
paths = (
{
closed = 1;
nodes = (
"35 700 LINE",
"35 140 LINE",
"35 140 OFFCURVE",
"34 0 OFFCURVE",
"174 0 CURVE SMOOTH",
"315 0 OFFCURVE",
"315 0 OFFCURVE",
"315 0 CURVE SMOOTH",
"315 0 OFFCURVE",
"455 -6 OFFCURVE",
"455 140 CURVE SMOOTH",
"455 286 OFFCURVE",
"455 700 OFFCURVE",
"455 700 CURVE SMOOTH",
"315 700 LINE",
"315 280 LINE",
"315 280 OFFCURVE",
"315 140 OFFCURVE",
"175 140 CURVE",
"175 700 LINE"
);
}
);
width = 490;
}
);
leftKerningGroup = 50;
rightKerningGroup = 50;
unicode = 0055;
},
{
glyphname = V;
layers = (
{
layerId = "CB061CE1-0D1C-4F8D-B790-4707B6629435";
name = Regular;
paths = (
{
closed = 1;
nodes = (
"315 0 OFFCURVE",
"455 126 OFFCURVE",
"455 140 CURVE SMOOTH",
"455 286 OFFCURVE",
"455 700 OFFCURVE",
"455 700 CURVE",
"315 560 LINE",
"315 280 LINE",
"315 280 OFFCURVE",
"315 140 OFFCURVE",
"175 140 CURVE",
"175 560 LINE",
"35 700 LINE",
"35 140 LINE",
"35 140 OFFCURVE",
"169 0 OFFCURVE",
"174 0 CURVE SMOOTH",
"315 0 LINE"
);
}
);
width = 490;
}
);
leftKerningGroup = 50;
rightKerningGroup = 50;
unicode = 0056;
},
{
glyphname = W;
layers = (
{
anchors = (
{
name = top;
position = "{335, 700}";
}
);
layerId = "CB061CE1-0D1C-4F8D-B790-4707B6629435";
name = Regular;
paths = (
{
closed = 1;
nodes = (
"35 140 LINE",
"175 0 LINE",
"595 0 LINE",
"595 0 OFFCURVE",
"735 1 OFFCURVE",
"735 140 CURVE SMOOTH",
"735 280 OFFCURVE",
"735 560 OFFCURVE",
"735 560 CURVE",
"595 700 LINE",
"595 280 LINE",
"595 280 OFFCURVE",
"595 140 OFFCURVE",
"455 140 CURVE",
"455 154 LINE",
"455 490 LINE",
"315 490 LINE",
"315 280 LINE",
"315 280 OFFCURVE",
"315 140 OFFCURVE",
"175 140 CURVE",
"175 560 LINE",
"35 700 LINE"
);
}
);
width = 770;
}
);
leftKerningGroup = 50;
rightKerningGroup = 50;
unicode = 0057;
},
{
glyphname = X;
layers = (
{
layerId = "CB061CE1-0D1C-4F8D-B790-4707B6629435";
name = Regular;
paths = (
{
closed = 1;
nodes = (
"315 420 LINE",
"315 420 OFFCURVE",
"315 560 OFFCURVE",
"455 560 CURVE",
"455 700 LINE",
"371 700 LINE",
"259 560 LINE",
"259 560 LINE",
"35 560 LINE",
"35 420 LINE",
"175 420 LINE",
"175 423 LINE",
"175 420 LINE",
"175 280 LINE",
"175 280 OFFCURVE",
"175 140 OFFCURVE",
"35 140 CURVE",
"35 0 LINE",
"119 0 LINE",
"231 140 LINE",
"231 140 LINE",
"455 140 LINE",
"455 280 LINE",
"315 280 LINE",
"315 277 LINE",
"315 280 LINE"
);
}
);
width = 490;
}
);
leftKerningGroup = 50;
rightKerningGroup = 50;
unicode = 0058;
},
{
glyphname = Y;
layers = (
{
anchors = (
{
name = top;
position = "{334, 700}";
}
);
layerId = "CB061CE1-0D1C-4F8D-B790-4707B6629435";
name = Regular;
paths = (
{
closed = 1;
nodes = (
"315 0 LINE",
"315 280 LINE",
"454 420 LINE",
"454 700 LINE",
"314 700 LINE",
"314 560 LINE",
"314 560 OFFCURVE",
"315 420 OFFCURVE",
"175 420 CURVE",
"175 700 LINE",
"35 700 LINE",
"35 420 LINE",
"175 280 LINE",
"175 0 LINE"
);
}
);
width = 489;
}
);
leftKerningGroup = 50;
rightKerningGroup = 50;
unicode = 0059;
},
{
glyphname = Z;
layers = (
{
anchors = (
{
name = top;
position = "{335, 700}";
}
);
layerId = "CB061CE1-0D1C-4F8D-B790-4707B6629435";
name = Regular;
paths = (
{
closed = 1;
nodes = (
"455 700 LINE",
"455 463 LINE",
"313 323 LINE",
"174 183 LINE",
"174 139 LINE",
"455 139 LINE",
"455 0 LINE",
"35 0 LINE",
"35 266 LINE",
"272 504 LINE",
"272 560 LINE",
"35 560 LINE",
"35 700 LINE"
);
}
);
width = 490;
}
);
leftKerningGroup = 50;
rightKerningGroup = 50;
unicode = 005A;
},
{
glyphname = a;
layers = (
{
anchors = (
{
name = top;
position = "{245, 700}";
},
{
name = ogonek;
position = "{413, 10}";
}
);
layerId = "CB061CE1-0D1C-4F8D-B790-4707B6629435";
name = Regular;
paths = (
{
closed = 1;
nodes = (
"458 700 OFFCURVE",
"455 563 OFFCURVE",
"455 563 CURVE",
"455 0 LINE",
"315 0 LINE",
"315 211 LINE",
"175 211 LINE",
"175 143 LINE",
"35 3 LINE",
"35 3 OFFCURVE",
"35 424 OFFCURVE",
"35 563 CURVE SMOOTH",
"35 700 OFFCURVE",
"178 700 OFFCURVE",
"178 700 CURVE SMOOTH",
"178 700 OFFCURVE",
"178 700 OFFCURVE",
"318 700 CURVE SMOOTH"
);
},
{
closed = 1;
nodes = (
"315 556 OFFCURVE",
"175 556 OFFCURVE",
"175 416 CURVE SMOOTH",
"175 309 LINE",
"315 309 LINE",
"315 556 LINE"
);
}
);
width = 490;
}
);
leftKerningGroup = 50;
rightKerningGroup = 50;
unicode = 0061;
},
{
glyphname = b;
layers = (
{
layerId = "CB061CE1-0D1C-4F8D-B790-4707B6629435";
name = Regular;
paths = (
{
closed = 1;
nodes = (
"456 350 OFFCURVE",
"455 211 OFFCURVE",
"455 211 CURVE SMOOTH",
"455 211 OFFCURVE",
"455 280 OFFCURVE",
"455 141 CURVE SMOOTH",
"455 3 OFFCURVE",
"315 -1 OFFCURVE",
"315 -1 CURVE SMOOTH",
"35 -1 LINE",
"35 560 LINE",
"176 700 LINE",
"316 700 LINE",
"316 700 OFFCURVE",
"456 700 OFFCURVE",
"456 560 CURVE SMOOTH",
"456 420 OFFCURVE",
"456 490 OFFCURVE",
"456 490 CURVE SMOOTH",
"456 490 OFFCURVE",
"470 350 OFFCURVE",
"316 350 CURVE"
);
},
{
closed = 1;
nodes = (
"315 433 LINE",
"315 574 LINE",
"178 574 OFFCURVE",
"176 433 OFFCURVE",
"176 433 CURVE"
);
},
{
closed = 1;
nodes = (
"175 251 LINE",
"175 111 LINE",
"313 111 OFFCURVE",
"315 251 OFFCURVE",
"315 251 CURVE SMOOTH"
);
}
);
width = 491;
}
);
leftKerningGroup = 50;
rightKerningGroup = 50;
unicode = 0062;
},
{
glyphname = c;
layers = (
{
anchors = (
{
name = top;
position = "{243, 700}";
},
{
name = bottom;
position = "{243, 0}";
}
);
layerId = "CB061CE1-0D1C-4F8D-B790-4707B6629435";
name = Regular;
paths = (
{
closed = 1;
nodes = (
"317 0 LINE",
"175 0 LINE SMOOTH",
"34 0 OFFCURVE",
"35 139 OFFCURVE",
"35 139 CURVE SMOOTH",
"35 139 OFFCURVE",
"35 421 OFFCURVE",
"35 560 CURVE SMOOTH",
"35 700 OFFCURVE",
"175 700 OFFCURVE",
"175 700 CURVE",
"454 700 LINE",
"454 476 LINE",
"314 476 LINE",
"314 561 LINE",
"314 561 OFFCURVE",
"175 561 OFFCURVE",
"175 421 CURVE SMOOTH",
"175 281 OFFCURVE",
"177 140 OFFCURVE",
"177 140 CURVE",
"317 140 OFFCURVE",
"315 279 OFFCURVE",
"315 279 CURVE",
"454 279 LINE",
"454 141 LINE"
);
}
);
width = 489;
}
);
leftKerningGroup = 50;
rightKerningGroup = 50;
unicode = 0063;
},
{
glyphname = d;
layers = (
{
anchors = (
{
name = top;
position = "{246, 700}";
},
{
name = center;
position = "{246, 350}";
}
);
layerId = "CB061CE1-0D1C-4F8D-B790-4707B6629435";
name = Regular;
paths = (
{
closed = 1;
nodes = (
"35 3 LINE",
"317 3 LINE",
"452 157 LINE",
"452 562 LINE",
"452 562 OFFCURVE",
"455 700 OFFCURVE",
"316 700 CURVE SMOOTH",
"35 700 LINE"
);
},
{
closed = 1;
nodes = (
"162 560 OFFCURVE",
"300 560 OFFCURVE",
"300 421 CURVE SMOOTH",
"300 281 LINE SMOOTH",
"300 142 OFFCURVE",
"162 142 OFFCURVE",
"162 142 CURVE",
"162 560 LINE"
);
}
);
width = 487;
}
);
leftKerningGroup = 50;
rightKerningGroup = 50;
unicode = 0064;
},
{
glyphname = e;
layers = (
{
anchors = (
{
name = top;
position = "{246, 700}";
},
{
name = bottom;
position = "{246, 0}";
},
{
name = ogonek;
position = "{414, 10}";
}
);
layerId = "CB061CE1-0D1C-4F8D-B790-4707B6629435";
name = Regular;
paths = (
{
closed = 1;
nodes = (
"357 420 LINE",
"174 419 LINE SMOOTH",
"174 419 OFFCURVE",
"176 559 OFFCURVE",
"315 559 CURVE SMOOTH",
"455 559 OFFCURVE",
"455 559 OFFCURVE",
"455 559 CURVE",
"455 700 LINE",
"175 700 LINE",
"35 559 LINE",
"35 0 LINE",
"455 0 LINE",
"455 141 LINE",
"175 141 LINE SMOOTH",
"175 141 OFFCURVE",
"172 280 OFFCURVE",
"313 280 CURVE SMOOTH",
"357 280 LINE"
);
}
);
width = 490;
}
);
leftKerningGroup = 50;
rightKerningGroup = 50;
unicode = 0065;
},
{
glyphname = f;
layers = (
{
layerId = "CB061CE1-0D1C-4F8D-B790-4707B6629435";
name = Regular;
paths = (
{
closed = 1;
nodes = (
"357 280 LINE",
"357 421 LINE",
"175 421 LINE SMOOTH",
"175 421 OFFCURVE",
"176 560 OFFCURVE",
"315 560 CURVE SMOOTH",
"455 560 OFFCURVE",
"455 560 OFFCURVE",
"455 560 CURVE",
"455 700 LINE",
"175 700 LINE",
"35 561 LINE",
"35 0 LINE",
"175 0 LINE",
"175 280 LINE"
);
}
);
width = 490;
}
);
leftKerningGroup = 50;
rightKerningGroup = 50;
unicode = 0066;
},
{
glyphname = g;
layers = (
{
anchors = (
{
name = top;
position = "{261, 700}";
},
{
name = bottom;
position = "{261, 0}";
}
);
layerId = "CB061CE1-0D1C-4F8D-B790-4707B6629435";
name = Regular;
paths = (
{
closed = 1;
nodes = (
"174 698 LINE SMOOTH",
"174 698 OFFCURVE",
"35 701 OFFCURVE",
"35 560 CURVE SMOOTH",
"35 420 OFFCURVE",
"35 140 OFFCURVE",
"35 140 CURVE SMOOTH",
"35 140 OFFCURVE",
"37 2 OFFCURVE",
"176 2 CURVE SMOOTH",
"316 2 OFFCURVE",
"357 2 OFFCURVE",
"357 2 CURVE SMOOTH",
"357 2 OFFCURVE",
"494 3 OFFCURVE",
"494 139 CURVE SMOOTH",
"494 276 OFFCURVE",
"494 420 OFFCURVE",
"494 420 CURVE SMOOTH",
"356 420 LINE",
"216 280 LINE",
"356 280 LINE",
"356 280 OFFCURVE",
"356 141 OFFCURVE",
"216 141 CURVE SMOOTH",
"77 141 OFFCURVE",
"177 141 OFFCURVE",
"177 141 CURVE",
"177 420 LINE",
"177 420 OFFCURVE",
"177 559 OFFCURVE",
"317 559 CURVE SMOOTH",
"456 559 OFFCURVE",
"356 559 OFFCURVE",
"356 559 CURVE",
"356 488 LINE",
"494 488 LINE",
"494 562 LINE",
"494 562 OFFCURVE",
"495 698 OFFCURVE",
"356 698 CURVE SMOOTH"
);
}
);
width = 529;
}
);
leftKerningGroup = 50;
rightKerningGroup = 50;
unicode = 0067;
},
{
glyphname = h;
layers = (
{
anchors = (
{
name = top;
position = "{333, 700}";
},
{
name = center;
position = "{333, 350}";
}
);
layerId = "CB061CE1-0D1C-4F8D-B790-4707B6629435";
name = Regular;
paths = (
{
closed = 1;
nodes = (
"35 700 LINE",
"35 141 LINE",
"175 1 LINE",
"175 280 LINE",
"315 280 LINE",
"315 0 LINE",
"455 0 LINE",
"455 563 LINE",
"316 700 LINE",
"316 504 LINE",
"316 504 OFFCURVE",
"316 363 OFFCURVE",
"176 363 CURVE",
"175 700 LINE"
);
}
);
width = 490;
}
);
leftKerningGroup = 50;
rightKerningGroup = 50;
unicode = 0068;
},
{
glyphname = i;
layers = (
{
anchors = (
{
name = top;
position = "{335, 700}";
},
{
name = ogonek;
position = "{575, 10}";
}
);
layerId = "CB061CE1-0D1C-4F8D-B790-4707B6629435";
name = Regular;
paths = (
{
closed = 1;
nodes = (
"455 700 LINE",
"176 700 LINE",
"35 560 LINE",
"175 560 LINE",
"175 141 LINE",
"35 141 LINE",
"35 3 LINE",
"455 3 LINE",
"455 141 LINE",
"315 141 LINE",
"315 560 LINE",
"455 560 LINE"
);
}
);
width = 490;
}
);
leftKerningGroup = 50;
rightKerningGroup = 50;
unicode = 0069;
},
{
glyphname = j;
layers = (
{
anchors = (
{
name = top;
position = "{245, 700}";
}
);
layerId = "CB061CE1-0D1C-4F8D-B790-4707B6629435";
name = Regular;
paths = (
{
closed = 1;
nodes = (
"35 140 LINE",
"175 0 LINE",
"314 0 LINE",
"314 0 OFFCURVE",
"455 0 OFFCURVE",
"455 140 CURVE SMOOTH",
"455 700 LINE",
"315 700 LINE",
"315 280 LINE",
"315 280 OFFCURVE",
"315 140 OFFCURVE",
"175 140 CURVE"
);
}
);
width = 490;
}
);
leftKerningGroup = 50;
rightKerningGroup = 50;
unicode = 006A;
},
{
glyphname = k;
layers = (
{
anchors = (
{
name = top;
position = "{335, 700}";
},
{
name = bottom;
position = "{335, 0}";
}
);
layerId = "CB061CE1-0D1C-4F8D-B790-4707B6629435";
name = Regular;
paths = (
{
closed = 1;
nodes = (
"455 644 OFFCURVE",
"455 700 OFFCURVE",
"455 700 CURVE SMOOTH",
"314 700 LINE",
"314 560 LINE",
"314 560 OFFCURVE",
"314 420 OFFCURVE",
"174 420 CURVE",
"174 700 LINE",
"35 700 LINE",
"35 0 LINE",
"174 140 LINE",
"174 280 LINE",
"174 280 OFFCURVE",
"314 280 OFFCURVE",
"314 140 CURVE SMOOTH",
"314 0 OFFCURVE",
"314 0 OFFCURVE",
"314 0 CURVE",
"455 0 LINE",
"455 223 LINE",
"455 223 OFFCURVE",
"454 343 OFFCURVE",
"337 353 CURVE",
"378 357 OFFCURVE",
"455 379 OFFCURVE",
"455 493 CURVE SMOOTH"
);
}
);
width = 490;
}
);
leftKerningGroup = 50;
rightKerningGroup = 50;
unicode = 006B;
},
{
glyphname = l;
layers = (
{
anchors = (
{
name = top;
position = "{454, 700}";
},
{
name = bottom;
position = "{454, -280}";
},
{
name = topright;
position = "{434, 500}";
}
);
layerId = "CB061CE1-0D1C-4F8D-B790-4707B6629435";
name = Regular;
paths = (
{
closed = 1;
nodes = (
"175 700 LINE",
"105 630 LINE",
"35 560 LINE",
"35 140 LINE",
"35 0 LINE",
"175 0 LINE",
"455 0 LINE",
"455 137 LINE",
"315 137 LINE SMOOTH",
"315 137 OFFCURVE",
"174 137 OFFCURVE",
"174 279 CURVE"
);
}
);
width = 490;
}
);
leftKerningGroup = 50;
rightKerningGroup = 50;
unicode = 006C;
},
{
glyphname = m;
layers = (
{
layerId = "CB061CE1-0D1C-4F8D-B790-4707B6629435";
name = Regular;
paths = (
{
closed = 1;
nodes = (
"176 700 LINE",
"35 559 LINE",
"35 0 LINE",
"179 0 LINE",
"179 420 LINE",
"179 420 OFFCURVE",
"179 559 OFFCURVE",
"316 559 CURVE",
"316 0 LINE",
"455 0 LINE",
"455 420 LINE",
"455 420 OFFCURVE",
"455 560 OFFCURVE",
"595 560 CURVE",
"595 0 LINE",
"735 0 LINE",
"735 560 LINE",
"735 560 OFFCURVE",
"735 700 OFFCURVE",
"595 700 CURVE SMOOTH"
);
}
);
width = 770;
}
);
leftKerningGroup = 50;
rightKerningGroup = 50;
unicode = 006D;
},
{
glyphname = n;
layers = (
{
anchors = (
{
name = top;
position = "{333, 700}";
},
{
name = bottom;
position = "{333, 0}";
}
);
layerId = "CB061CE1-0D1C-4F8D-B790-4707B6629435";
name = Regular;
paths = (
{
closed = 1;
nodes = (
"35 0 LINE",
"174 0 LINE",
"174 420 LINE",
"174 420 OFFCURVE",
"174 561 OFFCURVE",
"314 561 CURVE",
"314 0 LINE",
"455 0 LINE",
"455 700 LINE",
"175 700 LINE",
"35 560 LINE"
);
}
);
width = 490;
}
);
leftKerningGroup = 50;
rightKerningGroup = 50;
unicode = 006E;
},
{
glyphname = o;
layers = (
{
anchors = (
{
name = top;
position = "{335, 700}";
}
);
layerId = "CB061CE1-0D1C-4F8D-B790-4707B6629435";
name = Regular;
paths = (
{
closed = 1;
nodes = (
"455 700 OFFCURVE",
"455 561 OFFCURVE",
"455 561 CURVE SMOOTH",
"455 561 OFFCURVE",
"455 280 OFFCURVE",
"455 140 CURVE SMOOTH",
"455 -1 OFFCURVE",
"315 0 OFFCURVE",
"315 0 CURVE SMOOTH",
"315 0 OFFCURVE",
"315 0 OFFCURVE",
"175 0 CURVE SMOOTH",
"35 0 OFFCURVE",
"35 141 OFFCURVE",
"35 141 CURVE SMOOTH",
"35 141 OFFCURVE",
"35 420 OFFCURVE",
"35 561 CURVE SMOOTH",
"35 703 OFFCURVE",
"174 700 OFFCURVE",
"174 700 CURVE SMOOTH",
"174 700 OFFCURVE",
"175 700 OFFCURVE",
"315 700 CURVE SMOOTH"
);
},
{
closed = 1;
nodes = (
"175 140 OFFCURVE",
"314 140 OFFCURVE",
"314 280 CURVE SMOOTH",
"314 420 OFFCURVE",
"314 560 OFFCURVE",
"314 560 CURVE SMOOTH",
"314 560 OFFCURVE",
"175 560 OFFCURVE",
"175 420 CURVE SMOOTH",
"175 280 OFFCURVE",
"175 140 OFFCURVE",
"175 140 CURVE SMOOTH"
);
}
);
width = 490;
}
);
leftKerningGroup = 50;
rightKerningGroup = 50;
unicode = 006F;
},
{
glyphname = p;
layers = (
{
layerId = "CB061CE1-0D1C-4F8D-B790-4707B6629435";
name = Regular;
paths = (
{
closed = 1;
nodes = (
"315 700 LINE",
"456 700 OFFCURVE",
"455 560 OFFCURVE",
"455 560 CURVE SMOOTH",
"455 560 OFFCURVE",
"455 573 OFFCURVE",
"455 434 CURVE SMOOTH",
"455 294 OFFCURVE",
"315 293 OFFCURVE",
"315 293 CURVE SMOOTH",
"174 293 LINE",
"174 -1 LINE",
"35 -1 LINE",
"35 560 LINE",
"175 700 LINE"
);
},
{
closed = 1;
nodes = (
"308 410 LINE",
"308 580 LINE",
"308 580 OFFCURVE",
"168 581 OFFCURVE",
"168 440 CURVE SMOOTH",
"168 410 LINE"
);
}
);
width = 490;
}
);
leftKerningGroup = 50;
rightKerningGroup = 50;
unicode = 0070;
},
{
glyphname = q;
layers = (
{
layerId = "CB061CE1-0D1C-4F8D-B790-4707B6629435";
name = Regular;
paths = (
{
closed = 1;
nodes = (
"175 -28 LINE",
"434 -28 LINE",
"434 -28 OFFCURVE",
"539 -28 OFFCURVE",
"539 -133 CURVE",
"273 -133 LINE"
);
},
{
closed = 1;
nodes = (
"455 700 OFFCURVE",
"454 561 OFFCURVE",
"454 561 CURVE SMOOTH",
"454 561 OFFCURVE",
"454 280 OFFCURVE",
"454 139 CURVE SMOOTH",
"454 -1 OFFCURVE",
"315 0 OFFCURVE",
"315 0 CURVE SMOOTH",
"315 0 OFFCURVE",
"315 0 OFFCURVE",
"175 0 CURVE SMOOTH",
"35 0 OFFCURVE",
"35 142 OFFCURVE",
"35 142 CURVE SMOOTH",
"35 142 OFFCURVE",
"35 420 OFFCURVE",
"35 561 CURVE SMOOTH",
"35 702 OFFCURVE",
"174 700 OFFCURVE",
"174 700 CURVE SMOOTH",
"174 700 OFFCURVE",
"175 700 OFFCURVE",
"315 700 CURVE SMOOTH"
);
},
{
closed = 1;
nodes = (
"174 140 OFFCURVE",
"314 140 OFFCURVE",
"314 280 CURVE SMOOTH",
"314 420 OFFCURVE",
"314 560 OFFCURVE",
"314 560 CURVE SMOOTH",
"314 560 OFFCURVE",
"175 560 OFFCURVE",
"175 420 CURVE SMOOTH",
"175 280 OFFCURVE",
"174 140 OFFCURVE",
"174 140 CURVE SMOOTH"
);
}
);
width = 609;
}
);
leftKerningGroup = 50;
rightKerningGroup = 50;
unicode = 0071;
},
{
glyphname = r;
layers = (
{
anchors = (
{
name = top;
position = "{335, 700}";
},
{
name = bottom;
position = "{335, 0}";
}
);
layerId = "CB061CE1-0D1C-4F8D-B790-4707B6629435";
name = Regular;
paths = (
{
closed = 1;
nodes = (
"454 398 OFFCURVE",
"456 491 OFFCURVE",
"456 491 CURVE",
"456 505 OFFCURVE",
"456 526 OFFCURVE",
"456 561 CURVE SMOOTH",
"456 701 OFFCURVE",
"316 700 OFFCURVE",
"316 700 CURVE SMOOTH",
"176 700 LINE",
"35 560 LINE",
"35 419 LINE",
"35 350 LINE",
"35 0 LINE",
"176 0 LINE",
"176 281 LINE",
"318 281 OFFCURVE",
"318 140 OFFCURVE",
"318 140 CURVE",
"318 0 LINE",
"456 0 LINE",
"456 0 OFFCURVE",
"456 98 OFFCURVE",
"456 238 CURVE SMOOTH",
"456 313 OFFCURVE",
"416 347 OFFCURVE",
"379 363 CURVE"
);
},
{
closed = 1;
nodes = (
"315 434 LINE",
"176 434 LINE SMOOTH",
"176 434 OFFCURVE",
"175 575 OFFCURVE",
"315 575 CURVE"
);
}
);
width = 491;
}
);
leftKerningGroup = 50;
rightKerningGroup = 50;
unicode = 0072;
},
{
glyphname = s;
layers = (
{
anchors = (
{
name = top;
position = "{335, 700}";
},
{
name = bottom;
position = "{335, 0}";
}
);
layerId = "CB061CE1-0D1C-4F8D-B790-4707B6629435";
name = Regular;
paths = (
{
closed = 1;
nodes = (
"315 280 LINE",
"315 280 OFFCURVE",
"315 140 OFFCURVE",
"175 140 CURVE SMOOTH",
"35 140 OFFCURVE",
"35 140 OFFCURVE",
"35 140 CURVE",
"35 0 LINE",
"315 0 LINE",
"315 0 OFFCURVE",
"455 0 OFFCURVE",
"455 140 CURVE SMOOTH",
"455 280 OFFCURVE",
"455 350 OFFCURVE",
"455 350 CURVE SMOOTH",
"455 350 OFFCURVE",
"455 420 OFFCURVE",
"315 420 CURVE SMOOTH",
"175 420 OFFCURVE",
"175 420 OFFCURVE",
"175 420 CURVE",
"175 434 LINE",
"175 434 OFFCURVE",
"175 560 OFFCURVE",
"301 560 CURVE SMOOTH",
"427 560 OFFCURVE",
"455 560 OFFCURVE",
"455 560 CURVE",
"455 700 LINE",
"175 700 LINE",
"35 559 LINE",
"35 420 OFFCURVE",
"35 420 OFFCURVE",
"35 420 CURVE SMOOTH",
"35 420 OFFCURVE",
"35 280 OFFCURVE",
"175 280 CURVE"
);
}
);
width = 490;
}
);
leftKerningGroup = 50;
rightKerningGroup = 50;
unicode = 0073;
},
{
glyphname = t;
layers = (
{
anchors = (
{
name = top;
position = "{335, 700}";
},
{
name = bottom;
position = "{335, 0}";
},
{
name = center;
position = "{335, 350}";
}
);
layerId = "CB061CE1-0D1C-4F8D-B790-4707B6629435";
name = Regular;
paths = (
{
closed = 1;
nodes = (
"455 560 LINE",
"455 700 LINE",
"35 700 LINE",
"35 560 LINE",
"175 560 LINE",
"175 0 LINE",
"315 140 LINE",
"315 560 LINE"
);
}
);
width = 490;
}
);
leftKerningGroup = 50;
rightKerningGroup = 50;
unicode = 0074;
},
{
glyphname = u;
layers = (
{
anchors = (
{
name = top;
position = "{335, 700}";
},
{
name = ogonek;
position = "{575, 10}";
}
);
layerId = "CB061CE1-0D1C-4F8D-B790-4707B6629435";
name = Regular;
paths = (
{
closed = 1;
nodes = (
"35 700 LINE",
"35 140 LINE",
"35 140 OFFCURVE",
"34 0 OFFCURVE",
"174 0 CURVE SMOOTH",
"315 0 OFFCURVE",
"315 0 OFFCURVE",
"315 0 CURVE SMOOTH",
"315 0 OFFCURVE",
"455 -6 OFFCURVE",
"455 140 CURVE SMOOTH",
"455 286 OFFCURVE",
"455 700 OFFCURVE",
"455 700 CURVE SMOOTH",
"315 700 LINE",
"315 280 LINE",
"315 280 OFFCURVE",
"315 140 OFFCURVE",
"175 140 CURVE",
"175 700 LINE"
);
}
);
width = 490;
}
);
leftKerningGroup = 50;
rightKerningGroup = 50;
unicode = 0075;
},
{
glyphname = v;
layers = (
{
layerId = "CB061CE1-0D1C-4F8D-B790-4707B6629435";
name = Regular;
paths = (
{
closed = 1;
nodes = (
"315 0 OFFCURVE",
"455 126 OFFCURVE",
"455 140 CURVE SMOOTH",
"455 286 OFFCURVE",
"455 700 OFFCURVE",
"455 700 CURVE",
"315 560 LINE",
"315 280 LINE",
"315 280 OFFCURVE",
"315 140 OFFCURVE",
"175 140 CURVE",
"175 560 LINE",
"35 700 LINE",
"35 140 LINE",
"35 140 OFFCURVE",
"169 0 OFFCURVE",
"174 0 CURVE SMOOTH",
"315 0 LINE"
);
}
);
width = 490;
}
);
leftKerningGroup = 50;
rightKerningGroup = 50;
unicode = 0076;
},
{
glyphname = w;
layers = (
{
anchors = (
{
name = top;
position = "{335, 700}";
}
);
layerId = "CB061CE1-0D1C-4F8D-B790-4707B6629435";
name = Regular;
paths = (
{
closed = 1;
nodes = (
"35 140 LINE",
"175 0 LINE",
"595 0 LINE",
"595 0 OFFCURVE",
"735 1 OFFCURVE",
"735 140 CURVE SMOOTH",
"735 280 OFFCURVE",
"735 560 OFFCURVE",
"735 560 CURVE",
"595 700 LINE",
"595 280 LINE",
"595 280 OFFCURVE",
"595 140 OFFCURVE",
"455 140 CURVE",
"455 154 LINE",
"455 490 LINE",
"315 490 LINE",
"315 280 LINE",
"315 280 OFFCURVE",
"315 140 OFFCURVE",
"175 140 CURVE",
"175 560 LINE",
"35 700 LINE"
);
}
);
width = 770;
}
);
leftKerningGroup = 50;
rightKerningGroup = 50;
unicode = 0077;
},
{
glyphname = x;
layers = (
{
layerId = "CB061CE1-0D1C-4F8D-B790-4707B6629435";
name = Regular;
paths = (
{
closed = 1;
nodes = (
"315 420 LINE",
"315 420 OFFCURVE",
"315 560 OFFCURVE",
"455 560 CURVE",
"455 700 LINE",
"371 700 LINE",
"259 560 LINE",
"259 560 LINE",
"35 560 LINE",
"35 420 LINE",
"175 420 LINE",
"175 423 LINE",
"175 420 LINE",
"175 280 LINE",
"175 280 OFFCURVE",
"175 140 OFFCURVE",
"35 140 CURVE",
"35 0 LINE",
"119 0 LINE",
"231 140 LINE",
"231 140 LINE",
"455 140 LINE",
"455 280 LINE",
"315 280 LINE",
"315 277 LINE",
"315 280 LINE"
);
}
);
width = 490;
}
);
leftKerningGroup = 50;
rightKerningGroup = 50;
unicode = 0078;
},
{
glyphname = y;
layers = (
{
anchors = (
{
name = top;
position = "{334, 700}";
}
);
layerId = "CB061CE1-0D1C-4F8D-B790-4707B6629435";
name = Regular;
paths = (
{
closed = 1;
nodes = (
"315 0 LINE",
"315 280 LINE",
"454 420 LINE",
"454 700 LINE",
"314 700 LINE",
"314 560 LINE",
"314 560 OFFCURVE",
"315 420 OFFCURVE",
"175 420 CURVE",
"175 700 LINE",
"35 700 LINE",
"35 420 LINE",
"175 280 LINE",
"175 0 LINE"
);
}
);
width = 489;
}
);
leftKerningGroup = 50;
rightKerningGroup = 50;
unicode = 0079;
},
{
glyphname = z;
layers = (
{
anchors = (
{
name = top;
position = "{335, 700}";
}
);
layerId = "CB061CE1-0D1C-4F8D-B790-4707B6629435";
name = Regular;
paths = (
{
closed = 1;
nodes = (
"455 700 LINE",
"455 463 LINE",
"313 323 LINE",
"174 183 LINE",
"174 139 LINE",
"455 139 LINE",
"455 0 LINE",
"35 0 LINE",
"35 266 LINE",
"272 504 LINE",
"272 560 LINE",
"35 560 LINE",
"35 700 LINE"
);
}
);
width = 490;
}
);
leftKerningGroup = 50;
rightKerningGroup = 50;
unicode = 007A;
},
{
glyphname = zero;
layers = (
{
layerId = "CB061CE1-0D1C-4F8D-B790-4707B6629435";
name = Regular;
paths = (
{
closed = 1;
nodes = (
"175 699 OFFCURVE",
"174 699 OFFCURVE",
"174 699 CURVE SMOOTH",
"174 699 OFFCURVE",
"35 701 OFFCURVE",
"35 560 CURVE SMOOTH",
"35 419 OFFCURVE",
"35 141 OFFCURVE",
"35 141 CURVE SMOOTH",
"35 141 OFFCURVE",
"35 -1 OFFCURVE",
"175 -1 CURVE SMOOTH",
"315 -1 OFFCURVE",
"315 -1 OFFCURVE",
"315 -1 CURVE SMOOTH",
"315 -1 OFFCURVE",
"455 -2 OFFCURVE",
"455 138 CURVE SMOOTH",
"455 279 OFFCURVE",
"455 560 OFFCURVE",
"455 560 CURVE SMOOTH",
"455 560 OFFCURVE",
"455 699 OFFCURVE",
"315 699 CURVE SMOOTH"
);
},
{
closed = 1;
nodes = (
"314 559 OFFCURVE",
"314 530 OFFCURVE",
"314 486 CURVE",
"175 347 LINE",
"175 371 OFFCURVE",
"175 395 OFFCURVE",
"175 419 CURVE SMOOTH",
"175 559 OFFCURVE",
"314 559 OFFCURVE",
"314 559 CURVE SMOOTH"
);
},
{
closed = 1;
nodes = (
"174 139 OFFCURVE",
"174 166 OFFCURVE",
"175 207 CURVE",
"314 346 LINE",
"314 324 OFFCURVE",
"314 302 OFFCURVE",
"314 279 CURVE SMOOTH",
"314 139 OFFCURVE",
"174 139 OFFCURVE",
"174 139 CURVE SMOOTH"
);
}
);
width = 490;
}
);
unicode = 0030;
},
{
glyphname = one;
layers = (
{
layerId = "CB061CE1-0D1C-4F8D-B790-4707B6629435";
name = Regular;
paths = (
{
closed = 1;
nodes = (
"315 0 LINE",
"315 700 LINE",
"176 700 LINE",
"35 560 LINE",
"175 560 LINE",
"175 0 LINE"
);
}
);
width = 350;
}
);
unicode = 0031;
},
{
glyphname = two;
layers = (
{
layerId = "CB061CE1-0D1C-4F8D-B790-4707B6629435";
name = Regular;
paths = (
{
closed = 1;
nodes = (
"314 700 LINE",
"314 700 OFFCURVE",
"454 699 OFFCURVE",
"454 560 CURVE SMOOTH",
"454 421 OFFCURVE",
"454 461 OFFCURVE",
"454 461 CURVE",
"175 183 LINE",
"175 139 LINE",
"454 139 LINE",
"454 0 LINE",
"35 0 LINE",
"35 266 LINE",
"269 500 LINE",
"269 561 LINE",
"35 561 LINE",
"35 700 LINE"
);
}
);
width = 489;
}
);
unicode = 0032;
},
{
glyphname = three;
layers = (
{
layerId = "CB061CE1-0D1C-4F8D-B790-4707B6629435";
name = Regular;
paths = (
{
closed = 1;
nodes = (
"455 700 LINE",
"455 0 LINE",
"35 0 LINE",
"35 141 LINE",
"315 141 LINE",
"315 141 OFFCURVE",
"318 280 OFFCURVE",
"177 280 CURVE SMOOTH",
"133 280 LINE",
"133 419 LINE",
"316 419 LINE",
"316 419 OFFCURVE",
"314 559 OFFCURVE",
"175 559 CURVE SMOOTH",
"35 559 OFFCURVE",
"35 559 OFFCURVE",
"35 559 CURVE",
"175 700 LINE"
);
}
);
width = 490;
}
);
unicode = 0033;
},
{
glyphname = four;
layers = (
{
layerId = "CB061CE1-0D1C-4F8D-B790-4707B6629435";
name = Regular;
paths = (
{
closed = 1;
nodes = (
"316 0 LINE",
"316 279 LINE",
"175 279 LINE",
"35 420 LINE",
"35 560 LINE",
"176 700 LINE",
"176 560 LINE",
"176 560 OFFCURVE",
"175 420 OFFCURVE",
"315 420 CURVE",
"315 700 LINE",
"455 700 LINE",
"455 420 LINE",
"455 279 LINE",
"455 0 LINE"
);
}
);
width = 490;
}
);
unicode = 0034;
},
{
glyphname = five;
layers = (
{
layerId = "CB061CE1-0D1C-4F8D-B790-4707B6629435";
name = Regular;
paths = (
{
closed = 1;
nodes = (
"175 140 OFFCURVE",
"35 140 OFFCURVE",
"35 140 CURVE",
"175 0 LINE",
"315 0 LINE",
"315 0 OFFCURVE",
"455 0 OFFCURVE",
"455 140 CURVE SMOOTH",
"455 280 OFFCURVE",
"455 350 OFFCURVE",
"455 350 CURVE SMOOTH",
"455 350 OFFCURVE",
"455 420 OFFCURVE",
"315 420 CURVE SMOOTH",
"175 420 LINE",
"175 560 LINE",
"213 560 OFFCURVE",
"455 560 OFFCURVE",
"455 560 CURVE",
"455 700 LINE",
"175 700 LINE",
"35 559 LINE",
"35 420 OFFCURVE",
"35 420 OFFCURVE",
"35 420 CURVE SMOOTH",
"35 420 OFFCURVE",
"35 280 OFFCURVE",
"175 280 CURVE SMOOTH",
"315 280 LINE",
"315 140 LINE"
);
}
);
width = 490;
}
);
unicode = 0035;
},
{
glyphname = six;
layers = (
{
layerId = "CB061CE1-0D1C-4F8D-B790-4707B6629435";
name = Regular;
paths = (
{
closed = 1;
nodes = (
"175 420 OFFCURVE",
"175 420 OFFCURVE",
"175 420 CURVE SMOOTH",
"175 420 OFFCURVE",
"175 560 OFFCURVE",
"315 560 CURVE SMOOTH",
"455 560 LINE",
"455 700 LINE",
"175 700 LINE",
"35 560 LINE",
"35 140 LINE",
"175 0 LINE",
"315 0 LINE",
"315 0 OFFCURVE",
"455 0 OFFCURVE",
"455 140 CURVE SMOOTH",
"455 280 OFFCURVE",
"455 280 OFFCURVE",
"455 280 CURVE SMOOTH",
"455 280 OFFCURVE",
"455 420 OFFCURVE",
"315 420 CURVE SMOOTH"
);
},
{
closed = 1;
nodes = (
"175 140 OFFCURVE",
"175 280 OFFCURVE",
"175 280 CURVE",
"315 280 LINE",
"315 140 LINE"
);
}
);
width = 490;
}
);
unicode = 0036;
},
{
glyphname = seven;
layers = (
{
layerId = "CB061CE1-0D1C-4F8D-B790-4707B6629435";
name = Regular;
paths = (
{
closed = 1;
nodes = (
"315 0 LINE",
"175 0 LINE",
"175 308 LINE",
"315 448 LINE",
"315 559 LINE",
"35 559 LINE",
"175 700 LINE",
"455 700 LINE",
"455 390 LINE",
"315 236 LINE"
);
}
);
width = 490;
}
);
unicode = 0037;
},
{
glyphname = eight;
layers = (
{
layerId = "CB061CE1-0D1C-4F8D-B790-4707B6629435";
name = Regular;
paths = (
{
closed = 1;
nodes = (
"175 700 OFFCURVE",
"174 700 OFFCURVE",
"174 700 CURVE SMOOTH",
"174 700 OFFCURVE",
"35 702 OFFCURVE",
"35 561 CURVE SMOOTH",
"35 420 OFFCURVE",
"35 142 OFFCURVE",
"35 142 CURVE SMOOTH",
"35 142 OFFCURVE",
"35 0 OFFCURVE",
"175 0 CURVE SMOOTH",
"315 0 OFFCURVE",
"315 0 OFFCURVE",
"315 0 CURVE SMOOTH",
"315 0 OFFCURVE",
"455 -1 OFFCURVE",
"455 139 CURVE SMOOTH",
"455 280 OFFCURVE",
"455 561 OFFCURVE",
"455 561 CURVE SMOOTH",
"455 561 OFFCURVE",
"455 700 OFFCURVE",
"315 700 CURVE SMOOTH"
);
},
{
closed = 1;
nodes = (
"314 140 OFFCURVE",
"174 140 OFFCURVE",
"174 140 CURVE SMOOTH",
"174 140 OFFCURVE",
"175 200 OFFCURVE",
"175 280 CURVE",
"314 281 LINE",
"314 281 OFFCURVE",
"314 281 OFFCURVE",
"314 280 CURVE SMOOTH"
);
},
{
closed = 1;
nodes = (
"175 421 LINE",
"176 560 OFFCURVE",
"314 560 OFFCURVE",
"314 560 CURVE SMOOTH",
"314 560 OFFCURVE",
"314 501 OFFCURVE",
"314 421 CURVE"
);
}
);
width = 490;
}
);
unicode = 0038;
},
{
glyphname = nine;
layers = (
{
layerId = "CB061CE1-0D1C-4F8D-B790-4707B6629435";
name = Regular;
paths = (
{
closed = 1;
nodes = (
"175 700 OFFCURVE",
"174 700 OFFCURVE",
"174 700 CURVE SMOOTH",
"174 700 OFFCURVE",
"35 702 OFFCURVE",
"35 561 CURVE SMOOTH",
"35 486 OFFCURVE",
"35 372 OFFCURVE",
"35 281 CURVE",
"175 281 LINE",
"175 324 OFFCURVE",
"175 372 OFFCURVE",
"175 420 CURVE SMOOTH",
"175 560 OFFCURVE",
"314 560 OFFCURVE",
"314 560 CURVE SMOOTH",
"314 560 OFFCURVE",
"314 501 OFFCURVE",
"314 421 CURVE",
"175 421 LINE",
"175 281 LINE",
"314 281 LINE",
"314 281 OFFCURVE",
"314 281 OFFCURVE",
"314 280 CURVE SMOOTH",
"314 140 OFFCURVE",
"174 140 OFFCURVE",
"174 140 CURVE SMOOTH",
"174 140 OFFCURVE",
"174 140 OFFCURVE",
"174 140 CURVE SMOOTH",
"35 140 LINE",
"35 133 OFFCURVE",
"39 0 OFFCURVE",
"175 0 CURVE SMOOTH",
"315 0 OFFCURVE",
"315 0 OFFCURVE",
"315 0 CURVE SMOOTH",
"315 0 OFFCURVE",
"455 -1 OFFCURVE",
"455 139 CURVE SMOOTH",
"455 280 OFFCURVE",
"455 561 OFFCURVE",
"455 561 CURVE SMOOTH",
"455 561 OFFCURVE",
"455 700 OFFCURVE",
"315 700 CURVE SMOOTH"
);
}
);
width = 490;
}
);
unicode = 0039;
},
{
glyphname = asterisk;
layers = (
{
layerId = "CB061CE1-0D1C-4F8D-B790-4707B6629435";
name = Regular;
paths = (
{
closed = 1;
nodes = (
"182 624 LINE",
"158 624 LINE",
"158 697 LINE",
"109 648 LINE",
"109 624 LINE",
"35 624 LINE",
"84 575 LINE",
"109 575 LINE",
"109 501 LINE",
"158 550 LINE",
"158 575 LINE",
"231 575 LINE"
);
}
);
width = 266;
}
);
unicode = 002A;
},
{
glyphname = colon;
layers = (
{
layerId = "CB061CE1-0D1C-4F8D-B790-4707B6629435";
name = Regular;
paths = (
{
closed = 1;
nodes = (
"175 0 LINE",
"175 140 LINE",
"35 140 LINE",
"35 0 LINE"
);
},
{
closed = 1;
nodes = (
"35 420 LINE",
"175 420 LINE",
"175 560 LINE",
"35 560 LINE"
);
}
);
width = 210;
}
);
unicode = 003A;
},
{
glyphname = comma;
layers = (
{
layerId = "CB061CE1-0D1C-4F8D-B790-4707B6629435";
name = Regular;
paths = (
{
closed = 1;
nodes = (
"35 -126 LINE",
"77 -126 LINE",
"135 -65 LINE",
"135 27 LINE",
"135 99 LINE",
"35 99 LINE",
"35 -3 LINE",
"93 -3 LINE",
"93 -3 OFFCURVE",
"107 -67 OFFCURVE",
"35 -67 CURVE"
);
}
);
width = 170;
}
);
unicode = 002C;
},
{
glyphname = exclam;
layers = (
{
layerId = "CB061CE1-0D1C-4F8D-B790-4707B6629435";
name = Regular;
paths = (
{
closed = 1;
nodes = (
"35 140 LINE",
"175 140 LINE",
"178 700 LINE",
"35 560 LINE"
);
},
{
closed = 1;
nodes = (
"175 0 LINE",
"175 105 LINE",
"35 105 LINE",
"36 0 LINE"
);
}
);
width = 213;
}
);
unicode = 0021;
},
{
glyphname = numbersign;
layers = (
{
layerId = "CB061CE1-0D1C-4F8D-B790-4707B6629435";
name = Regular;
paths = (
{
closed = 1;
nodes = (
"455 492 LINE",
"385 492 LINE",
"385 632 LINE",
"280 632 LINE",
"280 492 LINE",
"175 492 LINE",
"175 597 LINE",
"70 597 LINE",
"70 492 LINE",
"35 492 LINE",
"35 387 LINE",
"70 387 LINE",
"70 282 LINE",
"35 282 LINE",
"35 177 LINE",
"70 177 LINE",
"70 72 LINE",
"175 72 LINE",
"175 177 LINE",
"280 177 LINE",
"280 107 LINE",
"385 107 LINE",
"385 177 LINE",
"455 177 LINE",
"455 282 LINE",
"385 282 LINE",
"385 387 LINE",
"455 387 LINE"
);
},
{
closed = 1;
nodes = (
"175 282 LINE",
"175 387 LINE",
"280 387 LINE",
"280 282 LINE"
);
}
);
width = 490;
}
);
unicode = 0023;
},
{
glyphname = period;
layers = (
{
layerId = "CB061CE1-0D1C-4F8D-B790-4707B6629435";
name = Regular;
paths = (
{
closed = 1;
nodes = (
"35 5 LINE",
"135 5 LINE",
"135 105 LINE",
"35 105 LINE"
);
}
);
width = 170;
}
);
unicode = 002E;
},
{
glyphname = question;
layers = (
{
layerId = "CB061CE1-0D1C-4F8D-B790-4707B6629435";
name = Regular;
paths = (
{
closed = 1;
nodes = (
"315 1 LINE",
"315 106 LINE",
"175 106 LINE",
"175 1 LINE"
);
},
{
closed = 1;
nodes = (
"175 700 OFFCURVE",
"175 700 OFFCURVE",
"175 700 CURVE",
"35 561 LINE",
"175 561 LINE",
"175 561 OFFCURVE",
"315 561 OFFCURVE",
"315 421 CURVE",
"175 281 LINE",
"175 141 LINE",
"315 141 LINE",
"315 246 LINE",
"455 386 LINE",
"455 558 LINE",
"455 558 OFFCURVE",
"452 700 OFFCURVE",
"314 700 CURVE SMOOTH"
);
}
);
width = 490;
}
);
unicode = 003F;
},
{
glyphname = questiondown;
layers = (
{
layerId = "CB061CE1-0D1C-4F8D-B790-4707B6629435";
name = Regular;
paths = (
{
closed = 1;
nodes = (
"177 563 LINE",
"177 458 LINE",
"317 458 LINE",
"317 563 LINE"
);
},
{
closed = 1;
nodes = (
"314 -136 OFFCURVE",
"314 -136 OFFCURVE",
"314 -136 CURVE",
"455 2 LINE",
"315 3 LINE",
"315 3 OFFCURVE",
"175 3 OFFCURVE",
"175 143 CURVE",
"316 283 LINE",
"317 423 LINE",
"177 423 LINE",
"176 318 LINE",
"36 179 LINE",
"35 7 LINE",
"35 7 OFFCURVE",
"37 -135 OFFCURVE",
"175 -136 CURVE SMOOTH"
);
}
);
width = 490;
}
);
unicode = 00BF;
},
{
glyphname = semicolon;
layers = (
{
layerId = "CB061CE1-0D1C-4F8D-B790-4707B6629435";
name = Regular;
paths = (
{
closed = 1;
nodes = (
"35 433 LINE",
"175 433 LINE",
"175 573 LINE",
"35 573 LINE"
);
},
{
closed = 1;
nodes = (
"115 10 LINE",
"115 10 OFFCURVE",
"135 -79 OFFCURVE",
"35 -79 CURVE",
"35 -162 LINE",
"93 -162 LINE",
"175 -76 LINE",
"175 53 LINE",
"175 153 LINE",
"35 153 LINE",
"35 10 LINE"
);
}
);
width = 210;
}
);
unicode = 003B;
},
{
glyphname = parenleft;
layers = (
{
layerId = "CB061CE1-0D1C-4F8D-B790-4707B6629435";
name = Regular;
paths = (
{
closed = 1;
nodes = (
"176 701 OFFCURVE",
"36 700 OFFCURVE",
"36 561 CURVE SMOOTH",
"36 421 OFFCURVE",
"35 139 OFFCURVE",
"35 139 CURVE SMOOTH",
"35 139 OFFCURVE",
"32 0 OFFCURVE",
"174 0 CURVE",
"174 0 OFFCURVE",
"315 1 OFFCURVE",
"315 141 CURVE",
"175 141 LINE",
"175 561 LINE",
"315 561 LINE",
"315 561 OFFCURVE",
"318 701 OFFCURVE",
"176 701 CURVE SMOOTH"
);
}
);
width = 350;
}
);
unicode = 0028;
},
{
glyphname = parenright;
layers = (
{
layerId = "CB061CE1-0D1C-4F8D-B790-4707B6629435";
name = Regular;
paths = (
{
closed = 1;
nodes = (
"174 701 OFFCURVE",
"314 700 OFFCURVE",
"314 561 CURVE SMOOTH",
"314 421 OFFCURVE",
"315 139 OFFCURVE",
"315 139 CURVE SMOOTH",
"315 139 OFFCURVE",
"318 0 OFFCURVE",
"176 0 CURVE SMOOTH",
"176 0 OFFCURVE",
"35 1 OFFCURVE",
"35 141 CURVE",
"175 141 LINE",
"175 561 LINE",
"35 561 LINE SMOOTH",
"35 561 OFFCURVE",
"32 701 OFFCURVE",
"174 701 CURVE"
);
}
);
width = 350;
}
);
unicode = 0029;
},
{
glyphname = dollar;
layers = (
{
layerId = "CB061CE1-0D1C-4F8D-B790-4707B6629435";
name = Regular;
paths = (
{
closed = 1;
nodes = (
"368 529 OFFCURVE",
"392 529 OFFCURVE",
"392 529 CURVE",
"392 648 LINE",
"245 648 LINE",
"245 700 LINE",
"176 700 LINE",
"176 648 LINE",
"154 648 LINE",
"35 529 LINE",
"35 410 OFFCURVE",
"35 410 OFFCURVE",
"35 410 CURVE SMOOTH",
"35 410 OFFCURVE",
"35 291 OFFCURVE",
"154 291 CURVE SMOOTH",
"176 291 LINE",
"175 172 LINE",
"169 171 OFFCURVE",
"161 171 OFFCURVE",
"154 171 CURVE SMOOTH",
"35 171 OFFCURVE",
"35 171 OFFCURVE",
"35 171 CURVE",
"35 53 LINE",
"175 53 LINE",
"175 0 LINE",
"245 0 LINE",
"245 53 LINE",
"273 53 LINE",
"273 53 OFFCURVE",
"392 53 OFFCURVE",
"392 172 CURVE SMOOTH",
"392 291 OFFCURVE",
"392 350 OFFCURVE",
"392 350 CURVE SMOOTH",
"392 350 OFFCURVE",
"392 410 OFFCURVE",
"273 410 CURVE SMOOTH",
"263 410 OFFCURVE",
"253 410 OFFCURVE",
"245 410 CURVE",
"245 528 LINE",
"250 529 OFFCURVE",
"255 529 OFFCURVE",
"261 529 CURVE SMOOTH"
);
},
{
closed = 1;
nodes = (
"273 290 OFFCURVE",
"273 245 OFFCURVE",
"245 210 CURVE",
"245 290 LINE",
"273 290 LINE"
);
},
{
closed = 1;
nodes = (
"154 422 LINE",
"154 422 OFFCURVE",
"154 459 OFFCURVE",
"176 490 CURVE",
"176 410 LINE",
"154 410 OFFCURVE",
"154 410 OFFCURVE",
"154 410 CURVE"
);
}
);
width = 427;
}
);
unicode = 0024;
},
{
glyphname = equal;
layers = (
{
layerId = "CB061CE1-0D1C-4F8D-B790-4707B6629435";
name = Regular;
paths = (
{
closed = 1;
nodes = (
"35 305 LINE",
"385 305 LINE",
"385 445 LINE",
"35 445 LINE"
);
},
{
closed = 1;
nodes = (
"385 95 LINE",
"385 235 LINE",
"35 235 LINE",
"35 95 LINE"
);
}
);
width = 420;
}
);
unicode = 003D;
},
{
glyphname = minus;
layers = (
{
layerId = "CB061CE1-0D1C-4F8D-B790-4707B6629435";
name = Regular;
paths = (
{
closed = 1;
nodes = (
"35 225 LINE",
"315 225 LINE",
"315 365 LINE",
"35 365 LINE"
);
}
);
width = 350;
}
);
unicode = 2212;
},
{
glyphname = percent;
layers = (
{
layerId = "CB061CE1-0D1C-4F8D-B790-4707B6629435";
name = Regular;
paths = (
{
closed = 1;
nodes = (
"35 323 LINE",
"350 323 LINE",
"455 428 LINE",
"140 428 LINE"
);
},
{
closed = 1;
nodes = (
"280 148 LINE",
"280 253 LINE",
"175 253 LINE",
"175 148 LINE"
);
},
{
closed = 1;
nodes = (
"210 603 LINE",
"210 498 LINE",
"315 498 LINE",
"315 603 LINE"
);
}
);
width = 490;
}
);
unicode = 0025;
},
{
glyphname = plus;
layers = (
{
layerId = "CB061CE1-0D1C-4F8D-B790-4707B6629435";
name = Regular;
paths = (
{
closed = 1;
nodes = (
"35 273 LINE",
"175 273 LINE",
"175 133 LINE",
"315 133 LINE",
"315 273 LINE",
"455 273 LINE",
"455 413 LINE",
"315 413 LINE",
"315 553 LINE",
"175 553 LINE",
"175 413 LINE",
"35 413 LINE"
);
}
);
width = 490;
}
);
unicode = 002B;
},
{
glyphname = ampersand;
layers = (
{
layerId = "CB061CE1-0D1C-4F8D-B790-4707B6629435";
name = Regular;
paths = (
{
closed = 1;
nodes = (
"175 560 LINE",
"455 559 LINE",
"455 559 OFFCURVE",
"452 703 OFFCURVE",
"314 703 CURVE SMOOTH",
"175 703 OFFCURVE",
"175 703 OFFCURVE",
"175 703 CURVE",
"35 560 LINE",
"35 455 LINE",
"104 386 LINE",
"35 319 LINE",
"35 139 LINE",
"35 139 OFFCURVE",
"32 0 OFFCURVE",
"174 0 CURVE SMOOTH",
"315 0 OFFCURVE",
"315 0 OFFCURVE",
"315 0 CURVE SMOOTH",
"315 0 OFFCURVE",
"455 2 OFFCURVE",
"455 140 CURVE SMOOTH",
"455 144 OFFCURVE",
"455 151 OFFCURVE",
"455 158 CURVE",
"455 168 LINE",
"358 246 LINE",
"455 246 LINE",
"455 351 LINE",
"350 350 LINE",
"175 525 LINE"
);
},
{
closed = 1;
nodes = (
"175 315 LINE",
"245 245 LINE",
"310 245 LINE",
"300 204 OFFCURVE",
"270 140 OFFCURVE",
"175 140 CURVE"
);
}
);
width = 490;
}
);
unicode = 0026;
},
